<svg xmlns="http://www.w3.org/2000/svg" viewBox="0 0 459.97 502.54"><defs><style>.cls-2{fill:#fff}.cls-3,.cls-4{font-size:59.78px;fill:#f6f6f6;font-family:Jost-Semi,&quot;Jost*&quot;}.cls-4{font-size:44px;fill:#432918}</style></defs><g id="Ebene_2" data-name="Ebene 2"><circle cx="236.17" cy="236.18" r="214.97" fill="#1ea64a" id="Ebene_2-2" data-name="Ebene 2"/><g id="Ebene_1-2" data-name="Ebene 1"><path class="cls-2" d="M174.05 118.72c7.14 2 13-2.32 19.44-4.21 9.74-2.85 19.64-5.17 29.91-5.29 13-.16 26-1.07 38.92-.31 6.89.41 13.59 3.78 20.43 5.6 22.93 6.13 41.51 19.4 56.49 37 8.18 9.59 15 20.83 18.35 33.6 2.42 9.26 6.05 18.21 8.4 27.48 3.74 14.73 2.15 29.64-.51 44.28a156.53 156.53 0 01-8.08 28c-2.38 6.19-6.44 11.82-10.23 17.38-12.23 17.9-27.63 32.76-46.51 43.36-20.77 11.65-43.14 18.94-67.4 18.08-18.74-.67-37.58-2.09-54.2-11.78a243.53 243.53 0 01-29.22-20.42 119.68 119.68 0 01-31.67-37.88c-5.31-10.15-10.17-20.87-12.89-31.9-2.11-8.56-.66-18-.7-27 0-7.41-.8-14.95.36-22.18 1.46-9.14 4.23-18.14 7.08-27 1.52-4.75 4.17-9.19 6.71-13.54 7-11.86 16.27-21.68 26.4-31a104.43 104.43 0 0127.17-18.49c.89-.43 1.1-2.32 1.75-3.78zM324.92 292l16.54-3.89.67 1.37c-2.9 1.85-6.14 3.33-8.59 5.64s-3.78 5.24-5.62 7.92l2.66 2.28 10.35-11.85.91.93-18.18 19.1.61.6 20.3-18.48.76 1.12c1-3.39 2.09-6.78 3.22-10.47a65.52 65.52 0 00-6.33-2.21c-1.9-.47-4.44-1.36-5.77-.55-4.05 2.46-7.65 5.66-11.42 8.57L313 302.43l1.36 1.87 14.54-8.91zm27.86-37.48l1.59-8.78-9.76 2.05c-3.13-3.46 3.94-9.86-3.2-13.9-.54 7.8-4.69 7.73-10.06 4.35-.11 1.67-.21 2.35-.19 3 0 .88.25 1.76.23 2.63-.15 10.36.88 11.2 11.17 9 .34-.08.69-.45 1-.39 3.12.66 6.23 1.38 9.35 2.09l-8.64 1.78 7.65 8.52c.33-4.12.6-7.24.86-10.36zm-73.16 10.72l.19-.17-27 17.28.44 1.78c1.81.75 3.84 2.41 5.41 2.06 3.94-.88 7.63-2.79 11.5-4a11.13 11.13 0 014.93-.39 73.74 73.74 0 019.27 2.16c2.84.83 5.59 2 8.38 3-.08.61-.17 1.23-.25 1.85l33-19.21-.49-1.6c-2 .13-4.4-.39-5.95.51-4.59 2.67-8.74 6.07-13.26 8.88-4 2.48-8.19 4.56-12.3 6.82l-.93-1.53 23.22-14.57-1-1.74-23.32 13.06-.85-1.45 7.63-5c-3.26-4.81 3.48-4.35 3.87-7.36-6.87-3.41-9.84 4.7-15.56 5 7.4-6 14.33-12.65 22.93-16.86l.89 1.22-9.39 6.93.73 1.52 8.17-1.84c1.47 1.15 3.14 1.76 4.44 1.31a75.82 75.82 0 008-3.73l.7 1.45-5.37 3.46.46 1.1 5.74-1.88c4.77 5.47 12.1 1.47 17.41 6-2.38.26-3.82.8-5 .46-4.47-1.25-7.92.72-11.48 2.92-4.47 2.76-9.1 5.28-13.65 7.91-6.16 3.57-12.34 7.1-18.45 10.74a5.55 5.55 0 00-1.95 2.35c-1.71 3.63-3.29 7.33-4.91 11 1.3 2.42 2.81 5.21 4.37 8.09l-5.34 1.77 1.88 9.17 10.27-8.4-2.41-2.21 12.29-6.18-.53-1.25-5-1.21 14-9.34-.62-1.07-10.84 4.95-.66-1.36c4-2.54 8-5.12 12.08-7.62s8.45-5.09 12.69-7.64c-8.49-5-12.78 3.95-19.13 5.93l-.9-1.63 18.5-12.87 1 1.25-3.4 4.28h18c.36-3.69-.49-8.17 1.34-10.76 2.56-3.62.25-4.16-1.42-6.21-5.4-6.62-13.65-5.36-20.56-7.57-4.08-1.3-6.84-2.39-6.67-7.07 0-.44-.49-.89-.76-1.35l-2 1.13-2.91-4.7c-5.06 2.86-9 5.11-13 7.37a9.15 9.15 0 011.69-4.78c2-3.59.76-5.77-3.14-6.3-3.09-.41-6.23-.4-9.37-.58.26 6.19.12 6.38-5.08 7.9.73-2 1.5-4.15 2.28-6.28l-.91-.47-11.56 8.28-1.2-1.52c1.87-1.6 3.62-3.36 5.63-4.76 4.1-2.86 7.95-5.7 4.86-12.06-2.54.13-5.73-.56-8 .57a133.27 133.27 0 00-16.84 10c-1.57 1.08-2 3.78-3 5.73 3.29 1.49.86 3-.1 4.29-1.25 1.72-2.71 3.29-4.09 4.93l.31.59 9.58-5.84.79 1.24c-2.31 1.87-4.66 3.68-6.9 5.62-1.32 1.14-3.09 2.26-3.57 3.75-1.5 4.55-2.48 9.27-3.82 14.54 0 0 .54.66 1.14 1.31 5.59 6 5.55 5.94 12 1.06s13.15-9.78 19.74-14.65c3.15-2.33 6.33-4.63 9.5-6.94l.75 1q-3.55 4.19-7.16 8.42zm-32.34-103.92c-2.88-7.37 5.37-3.76 7.11-7.14-7.87.8-13.54-3.42-18.89-7.76-3.14-2.54-6-4.06-10.12-3.24a13.5 13.5 0 01-14.39-5.7c-.88-1.24-1.29-4-.52-5 4.14-5.52 5.65-10.63-1.16-15.54-3.19 2.94-9.6-2.68-12.35 3.83a10.06 10.06 0 01-1.88-.38c-6-1.24-9.17 2.4-7.27 8.25l.14-.12-15.24-1.52-.2 1.66 10.73 3.09.17 1.54c-2.4 1.32-4.8 2.65-7.2 4q-6 3.23-11.92 6.44l-12.94 4.49-.68-1.51 27.18-13.12c-8.11-2.77-14.33-1.67-19.94 4.8-3.57 4.11-8.81 6.78-13.3 10.1 8.22 2.46 13.84-1.4 19.6-4.85l12.79-4.77.64 1.58c-9.15 4.29-18.33 8.49-27.41 12.92-2.3 1.12-4.26 2.95-6.38 4.46-11-.24-16 7.87-14.4 14.27-6 2.91-6.37 5.88-1.32 10.05 2.33 1.93 4.52 4.31 7.22 5.44 2.3 1 5.68 1.39 7.82.41 21.06-9.74 41.94-19.85 62.94-29.73 1.72-.81 3.89-.66 5.85-1l.34 1.6a12.7 12.7 0 01-2.35 1.77q-32.95 14.89-65.88 29.69a5.42 5.42 0 00-2.72 2.3c-1.4 3.36 2.33 13.08 4.82 16 2.27 2.62 3.46 6.16 5.18 9.27 1.47 2.65 3 5.29 4.57 7.86.4.64 1.75.93 1.83 1.5.66 4.79 4.11 6.45 8.12 7.16-1.11 6.78-2.15 13.16-3.2 19.55l1.62.51L183.36 244l.81 1.3a5.85 5.85 0 01-1.13 1.55c-7.69 5.27-15.48 10.39-23.06 15.81-1.77 1.27-2.83 3.53-4.22 5.34l1.26.78 31.52-16.69 1.25 2.28-36 19.46a3.43 3.43 0 003.18-.06c13.87-7.38 27.7-14.82 41.58-22.16a39.1 39.1 0 015.6-2l.6 1.79c-2.9 1.53-5.78 3.12-8.71 4.6q-22.41 11.27-44.85 22.51c-.7.36-1.71 1.16-1.66 1.68.07.92.75 2.47 1.33 2.55 1.8.24 3.91.42 5.46-.31 3.35-1.58 6.32-3.93 9.62-5.64 15.33-7.95 30.73-15.79 46.34-23.78-3.26-6.64-8.72-7-14.69-6.56 1.2 5.69-2.64 5.34-6.38 5.78v-5.32c-6.72-1.35-10.22-11.25-18.13-6.59L156.92 216l-3.54 1.28c1.14-2.74 3.06-4.45 4.5-6.5 2-2.91 3.73-6.08 5.59-9.13.71-1.16 1.9-2.22 2.12-3.46 1.39-8 1.32-8 9.41-7.48a13.93 13.93 0 001.89 0c1.55-2.17 2.17-3.93 3.37-4.55 9.37-4.81 18.84-9.41 28.31-14a8 8 0 012.63-.27l.67 1.64-27.78 14c3.33 6.19 7.46 5.63 12.39 2.43a110.58 110.58 0 0111.4-5.9c1.42-.7 3-1.18 4.45-1.77l.82 1.72-21.86 11.47c4.85 3.64 25.65.05 31.77-5.09l-5.32-4.08.11.13-2.71-5c5.16-1 4.1-5.23 3.25-8.51-.76-3-3.66-5.39-4.35-8.35a17.16 17.16 0 01.86-8.91c.35-1.05 3.6-2.23 4.88-1.72 7 2.8 16.36.35 20.94 8.88.14.26 1.28 0 2 0-.5 8.36 3.59 7.69 14.77 4.71l-3.29-10.52zm53.64-11c.52-5.82-2.84-6.48-7.79-5.79-3.11.43-6.37-.2-9.56-.36l.11-1.63 12.49-.79c-3-5.06-7.59-5.32-11.17-4.07-3.92 1.37-6.45-.14-8.82-2.05a84.33 84.33 0 00-9.8-12.83 11.65 11.65 0 00-5.31-2.75c-4.63-1.29-10-.14-13.5-5a7.48 7.48 0 00-5.57-2.45c-8.61.31-17.21 1.08-26.25 1.72 1.73 3.75 3.51 7 4.76 10.52.67 1.87 3.13 4.95-1.81 5.46-.31 0-1 4.28-.27 4.88 1.92 1.48 4.74 3 7 2.69a17.62 17.62 0 0116 5.62c4.53 4.8 9.72 7 16.24 6.17 2.82-.35 4.63.78 4.5 3.79-.27 6.09-.49 12.21-1.26 18.25-.14 1.08-2.76 2.34-4.38 2.61-2.53.42-5.39-.55-7.76.19-4.66 1.44-7.82.13-9.6-4.07-3.85-9.13-11.41-11.25-21.37-11.24.81 2.52.95 5.19 2.33 6.79 3.73 4.3 5.1 8.84 3.39 14.28-1.16 3.67.42 5 4 4.62 3.34-.3 6.69-.6 10-.57 6.79.08 11 5.29 10 13-5.84-5.09-13.06 3.07-18.92-2.72-.27-.27-1.41.1-2 .42-4.78 2.47-9.92 4.47-14.15 7.68a11 11 0 01-9.19 2.4c-3.88-.52-7.94.36-13.51.74-1.61-2.8-4.12-7.2-6.72-11.73-3.39.72-6.79 1.08-9.93 2.19-5 1.76-2.39 10.21-9.14 10.91-.27 0-.52 2.65-.33 4 .37 2.63 1 5.23 1.6 7.84 1.3 5.93 3.63 11.11 9.62 13.87 3.42 1.58 7.7 2.65 9.84 5.33 2.94 3.68 5.8 4.28 10.08 4 6.89-.42 13.92-2 19.27 5.45 4.49 6.22 6 11.55 2.51 18.46a14.29 14.29 0 00-1.81 7.09c.43 5.39 1.64 10.71 2.42 16.07 1.19 8.2-3.71 14-8.07 20-1.27 1.76-3.32 4.37-2.8 5.76 2.59 6.88-2.15 9.46-6.24 13a11.49 11.49 0 00-3.5 6.9c-.33 3.06.78 6.26 1.1 9.42.25 2.49.25 5 .37 7.6-10.55-1.16-14.19-8.26-16.72-16a26 26 0 01-1.08-11.28c.67-4.82 2.93-9.41 3.89-14.22 1.07-5.37-4.7-11.7-10-10.55-3.88.85-5.31-1-6.73-3.47-2.27-4-5.45-6-10.13-6.88-5.26-1-10.27-3.34-15.11-5 .74-3.1 1.07-5.17 1.75-7.12.42-1.23 1.24-3.16 2.1-3.28 5-.7 4.95-4.3 5.3-7.86h-4.73c3-2.57 5-5.23 7.62-6.25 4.78-1.86 5-4.92 3.72-8.88-.9-2.85-.3-4.88 2.13-7 1.21-1 1.1-3.61 1.73-6l-6.41 1.8 3.48-4.34a14.07 14.07 0 01-2.29-2.14c-3-4.55-7.36-8.88-8.29-13.84-.75-4-1.8-5.55-5.13-7.2-2-1-4.62-3.86-4.45-5.64 1.26-13.18-7.61-18.86-18.25-25.08-.48 3.28-.09 6.42-1.39 8.52-7.06 11.42-7 24.38-8.45 37-.26 2.13 1 4.43 1.44 6.13l-3.09 13.83 1 .28 1.6-4.31 1.51.38c-.44 2.2-.9 4.4-1.31 6.61a39.48 39.48 0 00-.82 5c-.69 11.9 5.2 21.95 9.62 32.3 4.6 10.75 10.51 20.85 19.09 29.1 3.84 3.68 7.71 7.34 11.54 11 14.91 14.37 33.13 22.78 52.78 28.2 6.44 1.78 13.44 2.13 18.78-.56 4 .81 7 1.88 10 1.92 4.23.06 8.65-1.6 12.65-.82 7.44 1.43 13.61-1.64 20-4 1.25-.46 1.82-2.78 2.84-4.47l-22.58-1.39.09-1.67c10.09-2.84 22.65 4.55 30.38-7.52l-6.81 4.48-.68-.88 2.26-3.42-8.68-1.47.2-1.9c2.83.13 5.8.84 8.45.23 3.07-.71 6.52-2 8.51-4.18 1.18-1.29-.15-4.85-.4-7.88.41-.93 2-2.76 1.75-4.35-.68-4.91 4.64-10.05-.58-14.85-.3-.28 1.31-2.62 2-4 1.5-3 3-6 4.8-9.59-3.63-.21-6.13.36-7.78-.57-5.46-3.06-10.22-1.33-15.28.9-4.33 1.9-8.67 1.77-12.54-1.59q-5.25-4.56-10.75-8.83c-3.84-3-5.08-6.72-3.63-11.3q4.17-13.14 8.47-26.23a4.28 4.28 0 011.55-2.14c10.2-6.46 19.07-16 32.88-14.16 3.71.5 4.28-1.46 3.81-3.45-3.59-1.77-7.35-2.51-9.18-4.79-2.92-3.63-5.77-4.08-9.8-2.94-1.47.41-4 .4-4.71-.49-2.57-3.06 0-13.33 3-15.67 4.14-3.18 7.69-7.12 11.9-10.2a25.69 25.69 0 019.57-4.59c3.35-.69 7.08.63 10.54.24 3.91-.45 5.39 1.22 5.52 4.59s1.43 4.15 4.75 3.76c7.52-.91 15.12-2.71 22.26 2.32 1.47 1 4.82-.09 7.05-.89.88-.32 1.81-2.71 1.48-3.78-1.86-6-4-12-6.23-17.92-.89-2.42-2.08-4.74-3.13-7.1l2-1.72 4 7.38c1.56-3.67 2.74-6 3.52-8.4a49 49 0 001.22-6.19l-14.41 1-.37-1.3 3.41-3.23c-8.67-3.34-16.98.28-25.12-1.86zm11.23 64.94c.16 3.3.31 6.39.52 10.59l1.86-5.53c5-.37 9.59-.81 14.16-1 1.5-.06 3.46.07 4.46 1 5.3 4.71 6.33 4.81 12-.46l-10.26-2.42.22-1.28 11.08-.7v-1.24l3.54 3.17 2.85-5.7c2.59 2.59 3.7 7.82 9 4.37-1.07-5-2-10.28-3.38-15.41-.34-1.29-1.87-3.11-3-3.21-4.26-.38-8.58-.15-12.87-.15v1.39l13.28.76.12 2.29-15.46 2.94c-3-5.9-6.18-.2-10.08.93.54-1.6.9-2.64 1.4-4.14l-8.43 3.27c4.76-5.51 1.77-7.21-1.72-8-2.5-.53-5.23 0-7.85.1-3.39.14-6.82.74-10.15.37s-6.29-2-7-6.09c-.11-.68-2-1.19-3.08-1.58a34.6 34.6 0 00-7.11-2.1 6.62 6.62 0 00-4.7 1.36c-3.74 3.46-6.59 8.27-10.86 10.66s-5.07 4.68-3.84 8.29c8.69.95 18.48 3.94 18.77-10l5.53 4.36-4.15 4.5 5.58-1.77-6.81 9.22c9.9 1.3 13.7-6.47 20-9l1.24 1.4-7.75 4.78 1.93 2.34 10.93-6.38.86 1.14-7.31 5.67.91 1.56zm-97.63 40.1l-54.82 27.45c3.53 3.6 6.93 7.13 10.41 10.57.69.68 1.78 1.6 2.53 1.48 6.6-1.07 10.92 3.51 14.77 7.11 3 2.83 4.81 2.26 7.71 1.15 4.77-1.84 9.65-3.44 16.88-6 2.15-2.33 1.41-7.44-.27-12.44a27.23 27.23 0 011.12-20.68c1-2.24.99-4.9 1.67-8.63zm96.78-19.5l1.28-1.27c-.82-1.32-1.74-2.58-2.44-3.95-.94-1.83-2.26-3.68-2.45-5.62-.61-6.35-2.54-8.27-8.88-7.63a53.57 53.57 0 00-6.81 1.44c-5.65 1.32-7 4-4.79 9.38 2.38 5.83 10.64 7.53 16.23 3.06.15 6.51 5.75 1.87 7.86 4.6zm28.77 69.28c-2 .21-2.44.14-2.7.31a13.14 13.14 0 00-1.64 1.34c-12.78 11.72-25.59 23.37-41.45 31a16.05 16.05 0 01-2.16.71l-.47-.83 13.15-10.89c-12.06 4.85-27.14 16.3-30.53 22.36 25.87-7.75 46.82-23.21 65.8-43.99zm-12.24-82.59c-5.13 1.57-10.71.54-9.88 7.52 0 .37-.51.93-.92 1.21-3.73 2.54-3 4.93-.06 7.63 1.07 1 1.27 2.83 2.23 4 2.61 3.12 1.95 9.5 8.63 8.82zM186.77 329.91c1.86-3.61 4.33-5.75 8.39-4.77a4.87 4.87 0 003.24-.48c4.57-2.6 5-5.5 2-12.8-8.09.4-13.64 4.07-15.26 12.29-.43 2.18.12 4.56.22 6.85l6.44-.85-.26-1.34zm171.3-78.44l-1.25-.15c-.15.77-.29 1.55-.45 2.31-.92 4.33-1.42 8.82-2.94 12.93-1 2.65-3.86 4.55-5.1 7.16-.75 1.58-.27 3.95.23 5.8.21.75 2.63 1.75 2.9 1.49a10.2 10.2 0 002.64-4.08 89.24 89.24 0 003.12-12.37c.65-4.31.59-8.72.85-13.09zM346.72 243c7.79 1.1 8.36.64 7.92-5.33-.2-2.65-.64-5.28-.79-7.93s-1.39-4.48-3.91-3.32c-1.19.55-1.65 3.18-2 4.94-.16.92 1.19 2.11 1 3-.44 2.78-1.36 5.49-2.22 8.64zm-138.83 59.35c-6.45 2.35-13.81 2.77-18.52 8.81 5.2-5.16 15.63 1.4 18.52-8.81zm89.22 24.07c-9.69-1.78-12.22.25-10.86 8.26zm4.5-182.09c3.75 5.66 8.26 4.11 12.8 3.56-2.9-6.1-7.57-3.89-12.8-3.56zm24.69 163.2l-.84-1.22-14.93 11.37 1.35 1.79c6.01-2.35 9.39-8.26 14.42-11.94zM285.59 132.2l.6-1.63-11.46-3.79c2.33 6.79 6.95 5.22 10.86 5.42zm70.49 62.05l-3.76-5.46-5.49 5.46zm-14.3-31.35c-.86 2.09-2.13 4.23-1.8 4.51 4.56 3.89.28 6.18-2.09 9.18 6.95-2.59 7.66-5.08 3.89-13.69zm-58 45.1l-6.7 5.19c6.01 3.17 6.92 2.48 6.68-5.19zm42.71-59.94l.56-1.55c-4.87-4.9-5-4.94-9-2.36zm8.09 84.32l6.32-4.13c-5.68-3.17-6.9-.84-6.34 4.13zm-41.88 89.43l.73 1.15 12.25-7.46-1.19-1.8zm69.5-100.49c-.55 3.56-6.26 7.83.77 10.69zm-64-83.35l-.29 2.56 8.43.78.28-2.1z"/><path class="cls-2" d="M279.62 265.23c3.09-2.36 6.18-4.73 9.29-7.07a47 47 0 019.2-5.78c-5.34 7.08-13.15 11.22-19.85 16.67l-1.11-1 2.65-3zM301 159.39c8.2.25 10.68 4.74 7.76 9.56a20.26 20.26 0 00-1.55 3.34c-.64 1.69-.69 4.41-1.82 4.94a14.49 14.49 0 01-8.14 1.48c-5.66-1-9.65-6.68-6.9-10.81s8.03-6.51 10.65-8.51zm4.55 5.27c-1.84 1.33-3.64 2.29-4.93 3.7-1 1.08-2.07 3-1.72 4.08s2.48 1.43 3.37 1.88zm18.62 17.17a27.28 27.28 0 01-4.92-.81c-6.76-2.28-7.37-5.37-1.95-9.83.92-.75 2.87-1.49 3.59-1 2.46 1.54 5.13 3.27 6.63 5.61 1 1.5-.26 4.24 0 6.37a35.92 35.92 0 001.65 5.89l-1.41.65c-1.19-2.29-2.37-4.53-3.59-6.88zM130.12 297.6c4.13 3.08 10.77 2.14 13.5 9.76l-14.76-7.66zM121 213.44l1 17.67-2.05.15-1.27-17.72zm193-30.68c.85 1.11 2.63 2.59 2.36 3.28-.59 1.54-2.08 3.57-3.45 3.76s-4.12-1.89-4-2.72c.22-1.92 1.8-3.69 2.83-5.52zM151.91 316.07l5.48 8.43-7.23-1zm35.9-187.48c7.31-4 15.22-5.92 23.3-7l-22.42 13.87-.91-1.09 2-2.92-4.59 1.15-.63-.9 3.43-3.23zm18.98 38.18a356.72 356.72 0 01-40.1 19.76l-.9-1.79L205.88 165zm-28.68-5.15L154 174.49c1.65-4.21 17.5-13.21 23.51-14.12zm-12.64 11.1l17-10.13 1.15 1.76c-5.24 4-11.24 6.92-17.07 10.07zm52.27 13.55c-3.26 5.52-9.26 5.84-14.49 7.61 4.28-3.62 8.75-6.89 14.6-7.48zm1.65-9.35l-10.07 2.74c.78-4.66 3.34-5.66 10.07-2.74zm30.75 98.33q19.49-15.94 39-31.9l1.42 1.71-39 31.95zm-42.92-10.6l-32.62 15-.9-2L206.09 262zm-4.91 13.4l-29.61 14.63c2.5-4.68 23.52-15.37 29.61-14.63zm-24.88 3.11l25.08-11.94 1.1 2.37-25.18 11.88zm28.89 8.91l-17.39 7.56-.93-2.08 17.23-8.13zm-20.07-.13l13.7-7.42 1.17 2.15c-4.17 3.18-9.17 4.89-14 6.9z"/><text class="cls-3" transform="rotate(-119.3 149.374 132.607)">F</text><text class="cls-3" transform="rotate(-107.6 156.343 117.13)">R</text><text class="cls-3" transform="rotate(-97.48 158.292 97.962)">I</text><text class="cls-3" transform="rotate(-88.01 169.568 85.431)">D</text><text class="cls-3" transform="rotate(-73.7 181.692 53.8)">A</text><text class="cls-3" transform="rotate(-62 193.195 15.413)">Y</text><text class="cls-3" transform="rotate(-49.13 213.417 -42.08)">S</text><text class="cls-3" transform="rotate(-31.36 266.665 -195.544)">F</text><text class="cls-3" transform="rotate(-17.49 386.949 -491.52)">O</text><text class="cls-3" transform="rotate(-2.98 1645.316 -3990.106)">R</text><text class="cls-3" transform="rotate(15.06 -172.466 1029.185)">F</text><text class="cls-3" transform="rotate(27.1 -36.627 640.65)">U</text><text class="cls-3" transform="rotate(39.79 16.885 501.096)">T</text><text class="cls-3" transform="rotate(52.13 47.416 417.582)">U</text><text class="cls-3" transform="rotate(65.47 65.985 365.916)">R</text><text class="cls-3" transform="rotate(77.84 78.011 331.98)">E</text><text class="cls-4" transform="rotate(31.06 -646.771 420.148)">K</text><text class="cls-4" transform="matrix(.92 .4 -.4 .92 151.26 409.68)">r</text><text class="cls-4" transform="matrix(.96 .29 -.29 .96 168.34 417.24)">e</text><text class="cls-4" transform="rotate(10.98 -2111.594 1219.93)">i</text><text class="cls-4" transform="matrix(.99 .1 -.1 .99 207.08 427.2)">s</text><text class="cls-4" transform="matrix(.99 -.11 .11 .99 243.44 429.51)">P</text><text class="cls-4" transform="rotate(-13.84 1892.088 -902.75)">a</text><text class="cls-4" transform="rotate(-21.6 1242.36 -564.905)">d</text><text class="cls-4" transform="rotate(-30.24 918.244 -393.227)">e</text><text class="cls-4" transform="rotate(-37.08 762.137 -318.017)">r</text><text class="cls-4" transform="matrix(.72 -.7 .7 .72 361.56 383.51)">b</text><text class="cls-4" transform="rotate(-53 554.005 -200.96)">o</text><text class="cls-4" transform="matrix(.5 -.87 .87 .5 398.73 340.54)">r</text><text class="cls-4" transform="matrix(.4 -.92 .92 .4 408.55 323.77)">n</text></g></g></svg>