<svg xmlns="http://www.w3.org/2000/svg" viewBox="0 0 459.97 502.54"><defs><style>.cls-1{fill:#1ea64a;}.cls-2{fill:#fff;}.cls-3{font-size:59.78px;fill:#f6f6f6;}.cls-3,.cls-4{font-family:Jost-Semi, "Jost*";}.cls-4{font-size:44px;fill:#432918;}</style></defs><title>Element 1</title><g id="Ebene_2" data-name="Ebene 2"><g id="Ebene_2-2" data-name="Ebene 2"><circle class="cls-1" cx="236.17" cy="236.18" r="214.97"/></g><g id="Ebene_1-2" data-name="Ebene 1"><path class="cls-2" d="M174.05,118.72c7.14,2,13-2.32,19.44-4.21,9.74-2.85,19.64-5.17,29.91-5.29,13-.16,26-1.07,38.92-.31,6.89.41,13.59,3.78,20.43,5.6,22.93,6.13,41.51,19.4,56.49,37,8.18,9.59,15,20.83,18.35,33.6,2.42,9.26,6.05,18.21,8.4,27.48,3.74,14.73,2.15,29.64-.51,44.28a156.53,156.53,0,0,1-8.08,28c-2.38,6.19-6.44,11.82-10.23,17.38-12.23,17.9-27.63,32.76-46.51,43.36-20.77,11.65-43.14,18.94-67.4,18.08-18.74-.67-37.58-2.09-54.2-11.78a243.53,243.53,0,0,1-29.22-20.42,119.68,119.68,0,0,1-31.67-37.88c-5.31-10.15-10.17-20.87-12.89-31.9-2.11-8.56-.66-18-.7-27,0-7.41-.8-14.95.36-22.18,1.46-9.14,4.23-18.14,7.08-27,1.52-4.75,4.17-9.19,6.71-13.54,7-11.86,16.27-21.68,26.4-31a104.43,104.43,0,0,1,27.17-18.49C173.19,122.07,173.4,120.18,174.05,118.72ZM324.92,292l16.54-3.89.67,1.37c-2.9,1.85-6.14,3.33-8.59,5.64s-3.78,5.24-5.62,7.92l2.66,2.28,10.35-11.85.91.93-18.18,19.1.61.6,20.3-18.48.76,1.12c1-3.39,2.09-6.78,3.22-10.47a65.52,65.52,0,0,0-6.33-2.21c-1.9-.47-4.44-1.36-5.77-.55-4.05,2.46-7.65,5.66-11.42,8.57L313,302.43l1.36,1.87,14.54-8.91Zm27.86-37.48,1.59-8.78-9.76,2.05c-3.13-3.46,3.94-9.86-3.2-13.9-.54,7.8-4.69,7.73-10.06,4.35-.11,1.67-.21,2.35-.19,3,0,.88.25,1.76.23,2.63-.15,10.36.88,11.2,11.17,9,.34-.08.69-.45,1-.39,3.12.66,6.23,1.38,9.35,2.09l-8.64,1.78,7.65,8.52C352.25,260.75,352.52,257.63,352.78,254.51Zm-73.16,10.72.19-.17-27,17.28.44,1.78c1.81.75,3.84,2.41,5.41,2.06,3.94-.88,7.63-2.79,11.5-4a11.13,11.13,0,0,1,4.93-.39,73.74,73.74,0,0,1,9.27,2.16c2.84.83,5.59,2,8.38,3-.08.61-.17,1.23-.25,1.85l33-19.21L325,268c-2,.13-4.4-.39-5.95.51-4.59,2.67-8.74,6.07-13.26,8.88-4,2.48-8.19,4.56-12.3,6.82l-.93-1.53,23.22-14.57-1-1.74-23.32,13.06-.85-1.45,7.63-5c-3.26-4.81,3.48-4.35,3.87-7.36-6.87-3.41-9.84,4.7-15.56,5,7.4-6,14.33-12.65,22.93-16.86l.89,1.22-9.39,6.93.73,1.52,8.17-1.84c1.47,1.15,3.14,1.76,4.44,1.31a75.82,75.82,0,0,0,8-3.73l.7,1.45-5.37,3.46.46,1.1,5.74-1.88c4.77,5.47,12.1,1.47,17.41,6-2.38.26-3.82.8-5,.46-4.47-1.25-7.92.72-11.48,2.92-4.47,2.76-9.1,5.28-13.65,7.91-6.16,3.57-12.34,7.1-18.45,10.74a5.55,5.55,0,0,0-1.95,2.35c-1.71,3.63-3.29,7.33-4.91,11,1.3,2.42,2.81,5.21,4.37,8.09l-5.34,1.77,1.88,9.17L297,315.31l-2.41-2.21,12.29-6.18-.53-1.25-5-1.21,14-9.34-.62-1.07L303.89,299l-.66-1.36c4-2.54,8-5.12,12.08-7.62s8.45-5.09,12.69-7.64c-8.49-5-12.78,3.95-19.13,5.93l-.9-1.63,18.5-12.87,1,1.25-3.4,4.28h18c.36-3.69-.49-8.17,1.34-10.76,2.56-3.62.25-4.16-1.42-6.21-5.4-6.62-13.65-5.36-20.56-7.57-4.08-1.3-6.84-2.39-6.67-7.07,0-.44-.49-.89-.76-1.35l-2,1.13-2.91-4.7c-5.06,2.86-9,5.11-13,7.37a9.15,9.15,0,0,1,1.69-4.78c2-3.59.76-5.77-3.14-6.3-3.09-.41-6.23-.4-9.37-.58.26,6.19.12,6.38-5.08,7.9.73-2,1.5-4.15,2.28-6.28l-.91-.47-11.56,8.28-1.2-1.52c1.87-1.6,3.62-3.36,5.63-4.76,4.1-2.86,7.95-5.7,4.86-12.06-2.54.13-5.73-.56-8,.57a133.27,133.27,0,0,0-16.84,10c-1.57,1.08-2,3.78-3,5.73,3.29,1.49.86,3-.1,4.29-1.25,1.72-2.71,3.29-4.09,4.93l.31.59,9.58-5.84.79,1.24c-2.31,1.87-4.66,3.68-6.9,5.62-1.32,1.14-3.09,2.26-3.57,3.75-1.5,4.55-2.48,9.27-3.82,14.54,0,0,.54.66,1.14,1.31,5.59,6,5.55,5.94,12,1.06s13.15-9.78,19.74-14.65c3.15-2.33,6.33-4.63,9.5-6.94l.75,1Q283.23,261,279.62,265.23ZM247.28,161.32c-2.88-7.37,5.37-3.76,7.11-7.14-7.87.8-13.54-3.42-18.89-7.76-3.14-2.54-6-4.06-10.12-3.24a13.5,13.5,0,0,1-14.39-5.7c-.88-1.24-1.29-4-.52-5,4.14-5.52,5.65-10.63-1.16-15.54-3.19,2.94-9.6-2.68-12.35,3.83a10.06,10.06,0,0,1-1.88-.38c-6-1.24-9.17,2.4-7.27,8.25l.14-.12L172.71,127l-.2,1.66,10.73,3.09.17,1.54c-2.4,1.32-4.8,2.65-7.2,4q-6,3.23-11.92,6.44l-12.94,4.49-.68-1.51,27.18-13.12c-8.11-2.77-14.33-1.67-19.94,4.8-3.57,4.11-8.81,6.78-13.3,10.1,8.22,2.46,13.84-1.4,19.6-4.85L177,138.87l.64,1.58c-9.15,4.29-18.33,8.49-27.41,12.92-2.3,1.12-4.26,2.95-6.38,4.46-11-.24-16,7.87-14.4,14.27-6,2.91-6.37,5.88-1.32,10.05,2.33,1.93,4.52,4.31,7.22,5.44,2.3,1,5.68,1.39,7.82.41,21.06-9.74,41.94-19.85,62.94-29.73,1.72-.81,3.89-.66,5.85-1l.34,1.6a12.7,12.7,0,0,1-2.35,1.77Q177,175.53,144.07,190.33a5.42,5.42,0,0,0-2.72,2.3c-1.4,3.36,2.33,13.08,4.82,16,2.27,2.62,3.46,6.16,5.18,9.27,1.47,2.65,3,5.29,4.57,7.86.4.64,1.75.93,1.83,1.5.66,4.79,4.11,6.45,8.12,7.16-1.11,6.78-2.15,13.16-3.2,19.55l1.62.51L183.36,244l.81,1.3a5.85,5.85,0,0,1-1.13,1.55c-7.69,5.27-15.48,10.39-23.06,15.81-1.77,1.27-2.83,3.53-4.22,5.34l1.26.78,31.52-16.69,1.25,2.28-36,19.46a3.43,3.43,0,0,0,3.18-.06c13.87-7.38,27.7-14.82,41.58-22.16a39.1,39.1,0,0,1,5.6-2l.6,1.79c-2.9,1.53-5.78,3.12-8.71,4.6q-22.41,11.27-44.85,22.51c-.7.36-1.71,1.16-1.66,1.68.07.92.75,2.47,1.33,2.55,1.8.24,3.91.42,5.46-.31,3.35-1.58,6.32-3.93,9.62-5.64,15.33-7.95,30.73-15.79,46.34-23.78-3.26-6.64-8.72-7-14.69-6.56,1.2,5.69-2.64,5.34-6.38,5.78v-5.32c-6.72-1.35-10.22-11.25-18.13-6.59L156.92,216l-3.54,1.28c1.14-2.74,3.06-4.45,4.5-6.5,2-2.91,3.73-6.08,5.59-9.13.71-1.16,1.9-2.22,2.12-3.46,1.39-8,1.32-8,9.41-7.48a13.93,13.93,0,0,0,1.89,0c1.55-2.17,2.17-3.93,3.37-4.55,9.37-4.81,18.84-9.41,28.31-14a8,8,0,0,1,2.63-.27l.67,1.64-27.78,14c3.33,6.19,7.46,5.63,12.39,2.43a110.58,110.58,0,0,1,11.4-5.9c1.42-.7,3-1.18,4.45-1.77l.82,1.72-21.86,11.47c4.85,3.64,25.65.05,31.77-5.09l-5.32-4.08.11.13-2.71-5c5.16-1,4.1-5.23,3.25-8.51-.76-3-3.66-5.39-4.35-8.35a17.16,17.16,0,0,1,.86-8.91c.35-1.05,3.6-2.23,4.88-1.72,7,2.8,16.36.35,20.94,8.88.14.26,1.28,0,2,0-.5,8.36,3.59,7.69,14.77,4.71l-3.29-10.52Zm53.64-11c.52-5.82-2.84-6.48-7.79-5.79-3.11.43-6.37-.2-9.56-.36l.11-1.63,12.49-.79c-3-5.06-7.59-5.32-11.17-4.07-3.92,1.37-6.45-.14-8.82-2.05a84.33,84.33,0,0,0-9.8-12.83,11.65,11.65,0,0,0-5.31-2.75c-4.63-1.29-10-.14-13.5-5A7.48,7.48,0,0,0,242,112.6c-8.61.31-17.21,1.08-26.25,1.72,1.73,3.75,3.51,7,4.76,10.52.67,1.87,3.13,4.95-1.81,5.46-.31,0-1,4.28-.27,4.88,1.92,1.48,4.74,3,7,2.69a17.62,17.62,0,0,1,16,5.62c4.53,4.8,9.72,7,16.24,6.17,2.82-.35,4.63.78,4.5,3.79-.27,6.09-.49,12.21-1.26,18.25-.14,1.08-2.76,2.34-4.38,2.61-2.53.42-5.39-.55-7.76.19-4.66,1.44-7.82.13-9.6-4.07-3.85-9.13-11.41-11.25-21.37-11.24.81,2.52.95,5.19,2.33,6.79,3.73,4.3,5.1,8.84,3.39,14.28-1.16,3.67.42,5,4,4.62,3.34-.3,6.69-.6,10-.57,6.79.08,11,5.29,10,13-5.84-5.09-13.06,3.07-18.92-2.72-.27-.27-1.41.1-2,.42-4.78,2.47-9.92,4.47-14.15,7.68a11,11,0,0,1-9.19,2.4c-3.88-.52-7.94.36-13.51.74-1.61-2.8-4.12-7.2-6.72-11.73-3.39.72-6.79,1.08-9.93,2.19-5,1.76-2.39,10.21-9.14,10.91-.27,0-.52,2.65-.33,4,.37,2.63,1,5.23,1.6,7.84,1.3,5.93,3.63,11.11,9.62,13.87,3.42,1.58,7.7,2.65,9.84,5.33,2.94,3.68,5.8,4.28,10.08,4,6.89-.42,13.92-2,19.27,5.45,4.49,6.22,6,11.55,2.51,18.46a14.29,14.29,0,0,0-1.81,7.09c.43,5.39,1.64,10.71,2.42,16.07,1.19,8.2-3.71,14-8.07,20-1.27,1.76-3.32,4.37-2.8,5.76,2.59,6.88-2.15,9.46-6.24,13a11.49,11.49,0,0,0-3.5,6.9c-.33,3.06.78,6.26,1.1,9.42.25,2.49.25,5,.37,7.6-10.55-1.16-14.19-8.26-16.72-16a26,26,0,0,1-1.08-11.28c.67-4.82,2.93-9.41,3.89-14.22,1.07-5.37-4.7-11.7-10-10.55-3.88.85-5.31-1-6.73-3.47-2.27-4-5.45-6-10.13-6.88-5.26-1-10.27-3.34-15.11-5,.74-3.1,1.07-5.17,1.75-7.12.42-1.23,1.24-3.16,2.1-3.28,5-.7,4.95-4.3,5.3-7.86h-4.73c3-2.57,5-5.23,7.62-6.25,4.78-1.86,5-4.92,3.72-8.88-.9-2.85-.3-4.88,2.13-7,1.21-1,1.1-3.61,1.73-6L155.35,240l3.48-4.34a14.07,14.07,0,0,1-2.29-2.14c-3-4.55-7.36-8.88-8.29-13.84-.75-4-1.8-5.55-5.13-7.2-2-1-4.62-3.86-4.45-5.64,1.26-13.18-7.61-18.86-18.25-25.08-.48,3.28-.09,6.42-1.39,8.52-7.06,11.42-7,24.38-8.45,37-.26,2.13,1,4.43,1.44,6.13l-3.09,13.83,1,.28,1.6-4.31,1.51.38c-.44,2.2-.9,4.4-1.31,6.61a39.48,39.48,0,0,0-.82,5c-.69,11.9,5.2,21.95,9.62,32.3,4.6,10.75,10.51,20.85,19.09,29.1,3.84,3.68,7.71,7.34,11.54,11,14.91,14.37,33.13,22.78,52.78,28.2,6.44,1.78,13.44,2.13,18.78-.56,4,.81,7,1.88,10,1.92,4.23.06,8.65-1.6,12.65-.82,7.44,1.43,13.61-1.64,20-4,1.25-.46,1.82-2.78,2.84-4.47l-22.58-1.39.09-1.67c10.09-2.84,22.65,4.55,30.38-7.52l-6.81,4.48-.68-.88,2.26-3.42L262.19,336l.2-1.9c2.83.13,5.8.84,8.45.23,3.07-.71,6.52-2,8.51-4.18,1.18-1.29-.15-4.85-.4-7.88.41-.93,2-2.76,1.75-4.35-.68-4.91,4.64-10.05-.58-14.85-.3-.28,1.31-2.62,2-4,1.5-3,3-6,4.8-9.59-3.63-.21-6.13.36-7.78-.57-5.46-3.06-10.22-1.33-15.28.9-4.33,1.9-8.67,1.77-12.54-1.59q-5.25-4.56-10.75-8.83c-3.84-3-5.08-6.72-3.63-11.3q4.17-13.14,8.47-26.23a4.28,4.28,0,0,1,1.55-2.14c10.2-6.46,19.07-16,32.88-14.16,3.71.5,4.28-1.46,3.81-3.45-3.59-1.77-7.35-2.51-9.18-4.79-2.92-3.63-5.77-4.08-9.8-2.94-1.47.41-4,.4-4.71-.49-2.57-3.06,0-13.33,3-15.67,4.14-3.18,7.69-7.12,11.9-10.2a25.69,25.69,0,0,1,9.57-4.59c3.35-.69,7.08.63,10.54.24,3.91-.45,5.39,1.22,5.52,4.59s1.43,4.15,4.75,3.76c7.52-.91,15.12-2.71,22.26,2.32,1.47,1,4.82-.09,7.05-.89.88-.32,1.81-2.71,1.48-3.78-1.86-6-4-12-6.23-17.92-.89-2.42-2.08-4.74-3.13-7.1l2-1.72,4,7.38c1.56-3.67,2.74-6,3.52-8.4a49,49,0,0,0,1.22-6.19L323,156.72l-.37-1.3,3.41-3.23C317.37,148.85,309.06,152.47,300.92,150.33Zm11.23,64.94c.16,3.3.31,6.39.52,10.59l1.86-5.53c5-.37,9.59-.81,14.16-1,1.5-.06,3.46.07,4.46,1,5.3,4.71,6.33,4.81,12-.46l-10.26-2.42.22-1.28,11.08-.7,0-1.24,3.54,3.17,2.85-5.7c2.59,2.59,3.7,7.82,9,4.37-1.07-5-2-10.28-3.38-15.41-.34-1.29-1.87-3.11-3-3.21-4.26-.38-8.58-.15-12.87-.15l0,1.39,13.28.76.12,2.29-15.46,2.94c-3-5.9-6.18-.2-10.08.93.54-1.6.9-2.64,1.4-4.14l-8.43,3.27c4.76-5.51,1.77-7.21-1.72-8-2.5-.53-5.23,0-7.85.1-3.39.14-6.82.74-10.15.37s-6.29-2-7-6.09c-.11-.68-2-1.19-3.08-1.58a34.6,34.6,0,0,0-7.11-2.1,6.62,6.62,0,0,0-4.7,1.36c-3.74,3.46-6.59,8.27-10.86,10.66s-5.07,4.68-3.84,8.29c8.69.95,18.48,3.94,18.77-10l5.53,4.36L287,206.6l5.58-1.77-6.81,9.22c9.9,1.3,13.7-6.47,20-9l1.24,1.4-7.75,4.78,1.93,2.34,10.93-6.38.86,1.14L305.67,214l.91,1.56Zm-97.63,40.1L159.7,282.81c3.53,3.6,6.93,7.13,10.41,10.57.69.68,1.78,1.6,2.53,1.48,6.6-1.07,10.92,3.51,14.77,7.11,3,2.83,4.81,2.26,7.71,1.15,4.77-1.84,9.65-3.44,16.88-6,2.15-2.33,1.41-7.44-.27-12.44A27.23,27.23,0,0,1,212.85,264C213.85,261.76,213.84,259.1,214.52,255.37Zm96.78-19.5,1.28-1.27c-.82-1.32-1.74-2.58-2.44-3.95-.94-1.83-2.26-3.68-2.45-5.62-.61-6.35-2.54-8.27-8.88-7.63a53.57,53.57,0,0,0-6.81,1.44c-5.65,1.32-7,4-4.79,9.38,2.38,5.83,10.64,7.53,16.23,3.06C303.59,237.78,309.19,233.14,311.3,235.87Zm28.77,69.28c-2,.21-2.44.14-2.7.31a13.14,13.14,0,0,0-1.64,1.34c-12.78,11.72-25.59,23.37-41.45,31a16.05,16.05,0,0,1-2.16.71l-.47-.83,13.15-10.89c-12.06,4.85-27.14,16.3-30.53,22.36C300.14,341.39,321.09,325.93,340.07,305.15Zm-12.24-82.59c-5.13,1.57-10.71.54-9.88,7.52,0,.37-.51.93-.92,1.21-3.73,2.54-3,4.93-.06,7.63,1.07,1,1.27,2.83,2.23,4,2.61,3.12,1.95,9.5,8.63,8.82ZM186.77,329.91c1.86-3.61,4.33-5.75,8.39-4.77a4.87,4.87,0,0,0,3.24-.48c4.57-2.6,5-5.5,2-12.8-8.09.4-13.64,4.07-15.26,12.29-.43,2.18.12,4.56.22,6.85l6.44-.85-.26-1.34Zm171.3-78.44-1.25-.15c-.15.77-.29,1.55-.45,2.31-.92,4.33-1.42,8.82-2.94,12.93-1,2.65-3.86,4.55-5.1,7.16-.75,1.58-.27,3.95.23,5.8.21.75,2.63,1.75,2.9,1.49a10.2,10.2,0,0,0,2.64-4.08,89.24,89.24,0,0,0,3.12-12.37C357.87,260.25,357.81,255.84,358.07,251.47ZM346.72,243c7.79,1.1,8.36.64,7.92-5.33-.2-2.65-.64-5.28-.79-7.93s-1.39-4.48-3.91-3.32c-1.19.55-1.65,3.18-2,4.94-.16.92,1.19,2.11,1,3C348.5,237.14,347.58,239.85,346.72,243ZM207.89,302.35c-6.45,2.35-13.81,2.77-18.52,8.81C194.57,306,205,312.56,207.89,302.35Zm89.22,24.07c-9.69-1.78-12.22.25-10.86,8.26Zm4.5-182.09c3.75,5.66,8.26,4.11,12.8,3.56C311.51,141.79,306.84,144,301.61,144.33Zm24.69,163.2-.84-1.22-14.93,11.37,1.35,1.79C317.89,317.12,321.27,311.21,326.3,307.53ZM285.59,132.2l.6-1.63-11.46-3.79C277.06,133.57,281.68,132,285.59,132.2Zm70.49,62.05-3.76-5.46-5.49,5.46Zm-14.3-31.35c-.86,2.09-2.13,4.23-1.8,4.51,4.56,3.89.28,6.18-2.09,9.18C344.84,174,345.55,171.51,341.78,162.9Zm-58,45.1-6.7,5.19C283.09,216.36,284,215.67,283.76,208Zm42.71-59.94.56-1.55c-4.87-4.9-5-4.94-9-2.36Zm8.09,84.32,6.32-4.13C335.22,225.08,334,227.41,334.56,232.38ZM292.7,321.81l.73,1.15,12.25-7.46-1.19-1.8Zm69.5-100.49c-.55,3.56-6.26,7.83.77,10.69Zm-64-83.35-.29,2.56,8.43.78.28-2.1Z"/><path class="cls-2" d="M279.62,265.23c3.09-2.36,6.18-4.73,9.29-7.07a47,47,0,0,1,9.2-5.78c-5.34,7.08-13.15,11.22-19.85,16.67l-1.11-1,2.65-3Z"/><path class="cls-2" d="M301,159.39c8.2.25,10.68,4.74,7.76,9.56a20.26,20.26,0,0,0-1.55,3.34c-.64,1.69-.69,4.41-1.82,4.94a14.49,14.49,0,0,1-8.14,1.48c-5.66-1-9.65-6.68-6.9-10.81S298.38,161.39,301,159.39Zm4.55,5.27c-1.84,1.33-3.64,2.29-4.93,3.7-1,1.08-2.07,3-1.72,4.08s2.48,1.43,3.37,1.88Z"/><path class="cls-2" d="M324.17,181.83a27.28,27.28,0,0,1-4.92-.81c-6.76-2.28-7.37-5.37-1.95-9.83.92-.75,2.87-1.49,3.59-1,2.46,1.54,5.13,3.27,6.63,5.61,1,1.5-.26,4.24,0,6.37a35.92,35.92,0,0,0,1.65,5.89l-1.41.65C326.57,186.42,325.39,184.18,324.17,181.83Z"/><path class="cls-2" d="M130.12,297.6c4.13,3.08,10.77,2.14,13.5,9.76l-14.76-7.66Z"/><path class="cls-2" d="M121,213.44l1,17.67-2.05.15-1.27-17.72Z"/><path class="cls-2" d="M314,182.76c.85,1.11,2.63,2.59,2.36,3.28-.59,1.54-2.08,3.57-3.45,3.76s-4.12-1.89-4-2.72c.22-1.92,1.8-3.69,2.83-5.52Z"/><path class="cls-2" d="M151.91,316.07l5.48,8.43-7.23-1Z"/><path class="cls-2" d="M187.81,128.59c7.31-4,15.22-5.92,23.3-7l-22.42,13.87-.91-1.09,2-2.92-4.59,1.15-.63-.9,3.43-3.23Z"/><path class="cls-2" d="M206.79,166.77a356.72,356.72,0,0,1-40.1,19.76l-.9-1.79L205.88,165Z"/><path class="cls-2" d="M178.11,161.62,154,174.49c1.65-4.21,17.5-13.21,23.51-14.12Z"/><path class="cls-2" d="M165.47,172.72l17-10.13,1.15,1.76c-5.24,4-11.24,6.92-17.07,10.07Z"/><path class="cls-2" d="M217.74,186.27c-3.26,5.52-9.26,5.84-14.49,7.61,4.28-3.62,8.75-6.89,14.6-7.48Z"/><path class="cls-2" d="M219.39,176.92l-10.07,2.74C210.1,175,212.66,174,219.39,176.92Z"/><path class="cls-2" d="M250.14,275.25q19.49-15.94,39-31.9l1.42,1.71-39,31.95Z"/><path class="cls-2" d="M207.22,264.65l-32.62,15-.9-2L206.09,262Z"/><path class="cls-2" d="M202.31,278.05,172.7,292.68C175.2,288,196.22,277.31,202.31,278.05Z"/><path class="cls-2" d="M177.43,281.16l25.08-11.94,1.1,2.37-25.18,11.88Z"/><path class="cls-2" d="M206.32,290.07l-17.39,7.56-.93-2.08,17.23-8.13Z"/><path class="cls-2" d="M186.25,289.94l13.7-7.42,1.17,2.15c-4.17,3.18-9.17,4.89-14,6.9Z"/><text class="cls-3" transform="matrix(-0.49, -0.87, 0.87, -0.49, 107.2, 327.54)">F</text><text class="cls-3" transform="translate(91.97 301.57) rotate(-107.6)">R</text><text class="cls-3" transform="translate(81.77 267.66) rotate(-97.48)">I</text><text class="cls-3" transform="translate(78.3 251.93) rotate(-88.01)">D</text><text class="cls-3" transform="matrix(0.28, -0.96, 0.96, 0.28, 79.17, 213.16)">A</text><text class="cls-3" transform="matrix(0.47, -0.88, 0.88, 0.47, 88.83, 178.18)">Y</text><text class="cls-3" transform="translate(105.59 146.84) rotate(-49.13)">S</text><text class="cls-3" transform="matrix(0.77, -0.64, 0.64, 0.77, 128.47, 121.3)"> </text><text class="cls-3" transform="translate(140.72 110.21) rotate(-31.36)">F</text><text class="cls-3" transform="translate(165.61 93.57) rotate(-17.49)">O</text><text class="cls-3" transform="translate(209.66 80.14) rotate(-2.98)">R</text><text class="cls-3" transform="translate(245.03 78.95) rotate(6.45)"> </text><text class="cls-3" transform="translate(261.49 80.16) rotate(15.06)">F</text><text class="cls-3" transform="matrix(0.89, 0.46, -0.46, 0.89, 290.67, 87.32)">U</text><text class="cls-3" transform="translate(324.6 105.25) rotate(39.79)">T</text><text class="cls-3" transform="translate(347.95 123.81) rotate(52.13)">U</text><text class="cls-3" transform="translate(371.48 153.97) rotate(65.47)">R</text><text class="cls-3" transform="translate(386.11 185.79) rotate(77.84)">E</text><text class="cls-4" transform="translate(124.04 393.93) rotate(31.06)">K</text><text class="cls-4" transform="matrix(0.92, 0.4, -0.4, 0.92, 151.26, 409.68)">r</text><text class="cls-4" transform="matrix(0.96, 0.29, -0.29, 0.96, 168.34, 417.24)">e</text><text class="cls-4" transform="translate(193.7 424.52) rotate(10.98)">i</text><text class="cls-4" transform="matrix(0.99, 0.1, -0.1, 0.99, 207.08, 427.2)">s</text><text class="cls-4" transform="translate(228.05 429.13) rotate(0.49)"> </text><text class="cls-4" transform="matrix(0.99, -0.11, 0.11, 0.99, 243.44, 429.51)">P</text><text class="cls-4" transform="translate(270.88 426.4) rotate(-13.84)">a</text><text class="cls-4" transform="matrix(0.93, -0.37, 0.37, 0.93, 295.98, 420.13)">d</text><text class="cls-4" transform="translate(322.99 408.94) rotate(-30.24)">e</text><text class="cls-4" transform="translate(345.85 395.21) rotate(-37.08)">r</text><text class="cls-4" transform="matrix(0.72, -0.7, 0.7, 0.72, 361.56, 383.51)">b</text><text class="cls-4" transform="matrix(0.6, -0.8, 0.8, 0.6, 382.37, 362.82)">o</text><text class="cls-4" transform="matrix(0.5, -0.87, 0.87, 0.5, 398.73, 340.54)">r</text><text class="cls-4" transform="matrix(0.4, -0.92, 0.92, 0.4, 408.55, 323.77)">n</text></g></g></svg>